<svg width="70px" height="70px" viewBox="0 0 70 70" version="1.1" xmlns="http://www.w3.org/2000/svg" xmlns:xlink="http://www.w3.org/1999/xlink">
    <!-- Generator: Sketch 49.3 (51167) - http://www.bohemiancoding.com/sketch -->
    <desc>Created with Sketch.</desc>
    <defs>
        <rect id="path-1" x="0" y="0" width="70" height="70" rx="35"></rect>
    </defs>
    <g id="Website---Supply" stroke="none" stroke-width="1" fill="none" fill-rule="evenodd">
        <g id="Supply/Onboarding-1" transform="translate(-575.000000, -168.000000)">
            <g id="Group-2" transform="translate(575.000000, 168.000000)">
                <g id="Profile">
                    <mask id="mask-2" fill="white">
                        <use xlink:href="#path-1"></use>
                    </mask>
                    <use id="Mask" fill="#E8ECF1" xlink:href="#path-1"></use>
                    <path d="M61.9357893,77.3087321 L8.06421625,77.3087321 C6.75160824,77.3087321 5.68752921,76.2446531 5.68752921,74.9320451 L5.68752921,69.0457835 C5.69280269,67.2789806 6.48931737,65.6074626 7.85823671,64.4904667 C13.1531538,60.2288796 18.8900366,56.5477132 24.9703834,53.5101725 C25.1546136,53.419604 25.2713562,53.2322014 25.2714305,53.0269128 L25.2714305,47.3307862 C24.440687,45.924338 23.8741663,44.377817 23.5998272,42.7675471 C22.966044,42.7200133 22.118359,41.8247945 21.2231402,38.6241893 C19.9872629,34.2510852 21.3023631,33.6093797 22.4114837,33.7123694 C22.2003293,33.1166855 22.0386941,32.5045919 21.928224,31.8823204 C21.4910523,29.9873729 21.4910523,28.017763 21.928224,26.1228155 C22.4847506,23.8866437 23.6470179,21.8471935 25.287275,20.2286316 C26.2139377,19.244198 27.2598407,18.3792654 28.4007351,17.6538873 C29.3270334,16.9859095 30.3432516,16.4524616 31.4191276,16.0694293 C32.3064835,15.767332 33.2318615,15.5913235 34.1681623,15.5465581 C36.5648053,15.2853407 38.9822566,15.7960308 41.068477,17.0042595 C42.4510718,17.7200478 43.6123861,18.7991937 44.427528,20.1256418 C44.427528,20.1256418 49.9731311,20.5217563 48.1193153,31.842709 C48.0073667,32.4542988 47.8457448,33.0557441 47.6360556,33.6410688 C48.7530985,33.538079 50.0602763,34.1797845 48.8243991,38.5528887 C47.921258,41.7218048 47.0814952,42.6407904 46.447712,42.6962465 C46.1731175,44.2890285 45.6063907,45.8173108 44.7761088,47.2040296 L44.7761088,52.9556122 C44.776183,53.1609007 44.8929257,53.3483034 45.0771558,53.4388719 C51.1524874,56.5003782 56.8814628,60.2054874 62.1655357,64.4904667 C63.525572,65.6120778 64.3130443,67.2829137 64.3124763,69.0457835 L64.3124763,74.9162005 C64.3166969,75.5492779 64.0681612,76.157876 63.6219876,76.6070241 C63.175814,77.0561721 62.5688807,77.3087462 61.9357893,77.3087321 Z" id="Path" fill="#FFFFFF" mask="url(#mask-2)"></path>
                </g>
            </g>
        </g>
    </g>
</svg>